<?xml version="1.0" encoding="UTF-8"?>
<svg version="1.1" xmlns="http://www.w3.org/2000/svg" width="1254" height="1254">
<path d="M0 0 C413.82 0 827.64 0 1254 0 C1254 413.82 1254 827.64 1254 1254 C840.18 1254 426.36 1254 0 1254 C0 840.18 0 426.36 0 0 Z " fill="#F55C0B" transform="translate(0,0)"/>
<path d="M0 0 C413.82 0 827.64 0 1254 0 C1254 413.82 1254 827.64 1254 1254 C840.18 1254 426.36 1254 0 1254 C0 840.18 0 426.36 0 0 Z M214 23 C212.06256127 23.2985749 210.12507199 23.59682231 208.1875 23.89453125 C197.13514104 25.79982442 186.56852971 28.24873164 176 32 C175.04697998 32.32822754 175.04697998 32.32822754 174.07470703 32.66308594 C133.24494543 46.7818843 95.25041044 73.50487581 69 108 C68.37496582 108.80244141 68.37496582 108.80244141 67.73730469 109.62109375 C47.7225022 135.37318097 34.17242391 165.13291569 27.125 196.9375 C26.83834473 198.22962402 26.83834473 198.22962402 26.54589844 199.54785156 C22.73754661 217.98138029 22.70756512 236.30770518 22.73686353 255.03941923 C22.74106729 259.15098639 22.7336131 263.2625362 22.72771102 267.37409902 C22.71897964 274.56730785 22.71762597 281.76048821 22.72121429 288.95370102 C22.72653632 299.65072722 22.72041094 310.347726 22.71213136 321.04474923 C22.69691116 341.26384713 22.69518425 361.48293249 22.69765439 381.70203492 C22.6994888 397.3178707 22.69772433 412.93370239 22.69342995 428.54953766 C22.69282754 430.79501637 22.69222634 433.04049509 22.69162634 435.2859738 C22.69071907 438.66991518 22.6898104 442.05385655 22.68889399 445.43779793 C22.68046744 476.88984089 22.67612672 508.34188231 22.68030071 539.79392624 C22.68045709 540.97899403 22.68061346 542.16406182 22.68077458 543.38504075 C22.68158033 549.39109511 22.6824261 555.39714946 22.68328788 561.40320382 C22.68345897 562.59597239 22.68363006 563.78874096 22.68380633 565.01765403 C22.68415299 567.42972003 22.68450152 569.84178604 22.68485192 572.25385204 C22.69020886 609.78382732 22.68227824 647.3137791 22.66381836 684.84375 C22.64309064 727.03351684 22.63237709 769.22326913 22.63639385 811.41304135 C22.63678918 815.91376066 22.63715073 820.41447997 22.63749123 824.91519928 C22.63758196 826.02334588 22.63767269 827.13149247 22.63776617 828.27321927 C22.63893087 844.98273774 22.63229356 861.69224149 22.62167931 878.40175629 C22.6096165 897.41075068 22.60808083 916.41971269 22.62046947 935.42870757 C22.62708723 946.05786972 22.62549203 956.68695439 22.61188096 967.3161103 C22.60361176 974.42741478 22.60636598 981.53866146 22.61785623 988.64996128 C22.6240882 992.69413181 22.62577734 996.73815161 22.61399289 1000.7823132 C22.55849704 1021.19380599 23.15644584 1041.22288287 28.5 1061.0625 C28.74717773 1061.9896582 28.99435547 1062.91681641 29.24902344 1063.87207031 C44.88684187 1119.70037147 82.15551974 1170.01333286 132.74365234 1198.99462891 C136.46172855 1201.06326641 140.22119786 1203.04498003 144 1205 C144.66370605 1205.3501416 145.32741211 1205.7002832 146.01123047 1206.06103516 C176.08144738 1221.77631223 209.33274727 1228.18505379 243.03017426 1228.12863445 C244.39053298 1228.12998482 245.75089132 1228.1317708 247.11124897 1228.13394669 C250.82322346 1228.13863493 254.53517316 1228.13718871 258.2471488 1228.13466892 C262.29564863 1228.13302572 266.34414338 1228.13718504 270.39264154 1228.14057809 C277.47980321 1228.14571728 284.56695805 1228.14715187 291.6541214 1228.14612198 C302.19356131 1228.14459417 312.73299369 1228.1487652 323.27243214 1228.1539966 C343.19400822 1228.16365894 363.11558172 1228.16648043 383.03715986 1228.16705366 C398.42470146 1228.16751353 413.81224205 1228.16957356 429.19978333 1228.17275429 C433.6320529 1228.17365186 438.06432247 1228.17454167 442.49659204 1228.17542917 C444.14949709 1228.17576074 444.14949709 1228.17576074 445.83579415 1228.17609901 C476.82449693 1228.1822518 507.81319936 1228.18619972 538.80190277 1228.18575573 C539.96984907 1228.18574015 541.13779536 1228.18572457 542.34113397 1228.18570852 C548.26051425 1228.18562542 554.17989453 1228.18552638 560.09927481 1228.18542381 C561.27484393 1228.18540387 562.45041305 1228.18538392 563.66160547 1228.18536337 C566.03889247 1228.18532294 568.41617946 1228.18528114 570.79346646 1228.18523798 C607.77247115 1228.18462536 644.75146668 1228.19213005 681.73046875 1228.20581055 C723.29542594 1228.22118137 764.8603771 1228.22977616 806.42533731 1228.22884732 C810.86012173 1228.2287727 815.29490614 1228.22872399 819.72969055 1228.22869301 C820.82161142 1228.22868135 821.91353229 1228.2286697 823.03854167 1228.22865769 C840.58682068 1228.22862696 858.1350917 1228.23500441 875.68336833 1228.24362527 C893.32979217 1228.25211486 910.97620436 1228.25308149 928.62262911 1228.24651595 C939.09602584 1228.24282899 949.56938714 1228.24462708 960.04278009 1228.25445829 C967.05163641 1228.26047956 974.06046719 1228.25913909 981.06932236 1228.25198779 C985.05418985 1228.24812433 989.03898903 1228.24727795 993.02385157 1228.25544515 C1013.80809661 1228.29526373 1034.72632435 1228.32487231 1055.125 1223.8125 C1056.12394287 1223.59384277 1057.12288574 1223.37518555 1058.15209961 1223.14990234 C1084.31300563 1217.18013211 1111.53454874 1205.25591989 1133 1189 C1134.13898076 1188.16099365 1135.27831159 1187.32246234 1136.41796875 1186.484375 C1142.4590199 1181.98482157 1148.18755595 1177.19472995 1153.7265625 1172.0859375 C1155.8389424 1170.1477745 1157.99998072 1168.28976729 1160.1875 1166.4375 C1163.48714789 1163.56020704 1166.35011853 1160.47570417 1169.171875 1157.1328125 C1170.41747848 1155.67960844 1171.70099058 1154.25825415 1173.015625 1152.8671875 C1207.40557938 1116.3742503 1227.19280437 1065.07947904 1227.13422108 1015.22331238 C1227.13617747 1013.84153912 1227.13856763 1012.45976643 1227.14134905 1011.07799459 C1227.14771628 1007.28788877 1227.14791331 1003.49780424 1227.14707164 999.7076941 C1227.14724179 995.58138889 1227.15315523 991.45509115 1227.1583125 987.32878971 C1227.16762166 979.14763036 1227.17155771 970.96647641 1227.17383147 962.78531242 C1227.17679797 952.98413437 1227.18549807 943.18296346 1227.19424575 933.38178916 C1227.21507393 909.69164812 1227.2255578 886.00150585 1227.23437535 862.31135779 C1227.23858461 851.09877321 1227.24380626 839.88618917 1227.24905988 828.67360505 C1227.26694961 790.2742208 1227.28194414 751.8748364 1227.28938007 713.47544861 C1227.28985483 711.06541016 1227.29033072 708.65537171 1227.29080774 706.24533325 C1227.29104411 705.05019789 1227.29128049 703.85506253 1227.29152403 702.62371094 C1227.2927252 696.56880208 1227.29394065 690.51389323 1227.29516602 684.45898438 C1227.29552624 682.65657793 1227.29552624 682.65657793 1227.29589374 680.81775923 C1227.30378306 641.87684737 1227.32720758 602.93596601 1227.35972196 563.99506746 C1227.39405322 522.80278564 1227.41373431 481.61052165 1227.41702431 440.41822529 C1227.41744184 435.89231172 1227.41792139 431.36639817 1227.41844749 426.84048462 C1227.41857069 425.72611703 1227.41869388 424.61174945 1227.4188208 423.46361315 C1227.42114881 405.56255508 1227.43678651 387.66153255 1227.45728934 369.76048712 C1227.47758886 351.75055121 1227.48300518 333.74065777 1227.47351871 315.73071253 C1227.46831966 305.04484494 1227.4741054 294.35911922 1227.49605338 283.67327217 C1227.50963385 276.51754579 1227.50842102 269.36191627 1227.49565142 262.20618876 C1227.4888026 258.14058544 1227.4879182 254.07525189 1227.50521151 250.00967348 C1227.63740503 216.86913652 1223.21688791 186.49713926 1210 156 C1209.53037842 154.89809326 1209.53037842 154.89809326 1209.05126953 153.77392578 C1201.95337981 137.26729288 1192.27267167 121.97658953 1181 108 C1180.57847656 107.47696289 1180.15695312 106.95392578 1179.72265625 106.41503906 C1167.92023711 91.90148451 1154.79580231 78.30246624 1139.6796875 67.23095703 C1138.0029241 66.00214293 1136.34512847 64.75055492 1134.6875 63.49609375 C1116.70709784 50.07498914 1096.97062607 40.75384493 1076 33 C1075.07574219 32.649375 1074.15148438 32.29875 1073.19921875 31.9375 C1046.11884514 21.82974002 1018.74029314 20.69103005 990.17419048 20.74306489 C986.12965905 20.74818841 982.08514259 20.74159885 978.04061335 20.73657823 C970.96835001 20.72938844 963.89611725 20.72955319 956.82385254 20.73467255 C946.3069736 20.74226451 935.79012027 20.73835609 925.27324147 20.73225593 C906.48659062 20.72174396 887.6999534 20.72262937 868.91330126 20.72841376 C852.47438716 20.73345028 836.03547805 20.73475574 819.59656334 20.73236847 C818.50497743 20.7322157 817.41339152 20.73206293 816.28872726 20.73190553 C811.85735372 20.73128283 807.42598018 20.73064602 802.99460664 20.729986 C761.45147009 20.72387221 719.90834221 20.72940849 678.36520699 20.7401798 C641.47271473 20.74967254 604.58023628 20.74881958 567.68774414 20.73925781 C526.21473198 20.72854473 484.74172748 20.72430384 443.26871413 20.73048234 C438.84647254 20.73112375 434.42423095 20.73174944 430.00198936 20.73236847 C428.91316276 20.73252662 427.82433616 20.73268478 426.70251481 20.73284773 C410.2735811 20.73512089 393.84465293 20.73246547 377.41571999 20.72740936 C358.73418617 20.72168858 340.05266808 20.72312547 321.37113623 20.73397085 C310.92089331 20.7398378 300.47068448 20.74023485 290.02044246 20.7326785 C283.03485289 20.72818513 276.04929057 20.7310004 269.06370503 20.73968804 C265.08729536 20.74443253 261.11095326 20.7460996 257.13454578 20.73887607 C235.48326992 20.60649149 235.48326992 20.60649149 214 23 Z " fill="#FDFCFB" transform="translate(0,0)"/>
<path d="M0 0 C1.42939407 0.72439522 1.42939407 0.72439522 2.88766479 1.46342468 C3.89739349 1.9610582 4.90712219 2.45869171 5.94744873 2.97140503 C8.05099846 4.00906637 10.15178321 5.05235064 12.24984741 6.10105896 C16.01589554 7.97990797 19.79945719 9.82122572 23.58474731 11.66090393 C27.25383435 13.44581239 30.91685327 15.24299932 34.58004761 17.03996277 C37.57532455 18.5092696 40.57126068 19.97722515 43.56735229 21.44487 C47.75535685 23.49642545 51.9431624 25.54838623 56.13082886 27.60063171 C109.62565843 53.85883263 109.62565843 53.85883263 163.28903198 79.76957703 C169.46907978 82.72842566 175.60948202 85.75593487 181.72531128 88.84501648 C186.3903213 91.19254222 191.10072387 93.43074986 195.83297729 95.63920593 C202.40284837 98.70917712 208.91220238 101.88298651 215.38375854 105.15483093 C218.87799949 106.91832233 222.38647907 108.65099512 225.90086365 110.37384033 C228.64672229 111.72109695 231.389326 113.0749096 234.13171387 114.42921448 C235.51150145 115.10871449 236.89266297 115.78543196 238.27520752 116.45930481 C240.23310284 117.41421683 242.18577106 118.37912962 244.13766479 119.34623718 C245.28219116 119.90802673 246.42671753 120.46981628 247.60592651 121.04862976 C250.33297729 122.63920593 250.33297729 122.63920593 252.33297729 125.63920593 C252.64269686 129.89784993 252.78170499 133.07770567 250.33297729 136.63920593 C247.64741516 138.33938599 247.64741516 138.33938599 244.19015503 140.04325867 C243.56058395 140.35767914 242.93101288 140.67209961 242.28236389 140.99604797 C240.19918861 142.03299712 238.10807107 143.05276014 236.01657104 144.07279968 C234.56070309 144.79386175 233.10539353 145.51605227 231.65061951 146.23931885 C227.81391901 148.1433771 223.97042299 150.03328867 220.12515259 151.91996765 C215.48267409 154.20059319 210.84751494 156.49604205 206.21212101 158.79102421 C202.5984312 160.58010471 198.98349453 162.36645634 195.36408997 164.14395142 C189.3078247 167.12432885 183.27812436 170.10568599 177.44932556 173.51849365 C175.13399973 174.74457451 172.75050047 175.74263531 170.33783436 176.7597208 C166.42092671 178.47797898 162.61766858 180.43216546 158.79611206 182.35087585 C157.39935493 183.0491449 157.39935493 183.0491449 155.97438049 183.76152039 C152.90676245 185.29567663 149.84057113 186.83266176 146.77438354 188.36967468 C144.6256219 189.4449896 142.47677095 190.52012608 140.32783508 191.59509277 C134.66962565 194.42610403 129.01261925 197.25951105 123.35586548 200.09342957 C117.6490777 202.95190667 111.94118333 205.80817215 106.23336792 208.66459656 C96.89532546 213.33803351 87.55794876 218.01279723 78.22157001 222.68955708 C74.00261434 224.80266896 69.78307234 226.91457992 65.56140137 229.02226257 C64.82940742 229.38779645 64.09741346 229.75333033 63.34323788 230.12994099 C62.01415271 230.79346039 60.68488463 231.45661363 59.35537815 232.11928844 C54.05980247 234.76305925 48.81697973 237.50114298 43.58297729 240.26420593 C31.14244145 246.79567408 18.57513945 253.06587503 5.99240112 259.31742859 C5.11479126 259.75361511 4.2371814 260.18980164 3.33297729 260.63920593 C2.57589478 260.98644714 1.81881226 261.33368835 1.03878784 261.69145203 C-0.84734528 262.52930622 -0.84734528 262.52930622 -1.66702271 264.63920593 C0.13860641 264.63367517 0.13860641 264.63367517 1.98071289 264.62803268 C30.56620469 264.54136973 59.15169467 264.47542808 87.73728818 264.43494461 C91.25697775 264.42994189 94.77666704 264.42476459 98.2963562 264.41947937 C99.34740018 264.41790551 99.34740018 264.41790551 100.41967738 264.41629985 C111.75983666 264.39890263 123.0999147 264.36736873 134.44002581 264.33059475 C146.07918883 264.29316625 157.7183045 264.27126539 169.35752487 264.26285195 C175.89379597 264.25763606 182.42988288 264.24537206 188.96609497 264.21628571 C195.11872411 264.18912823 201.27109324 264.18076177 207.42377663 264.18677521 C209.68123602 264.18567514 211.93870414 264.17772349 214.19611168 264.16238403 C217.28087043 264.14245147 220.36465047 264.14727925 223.44943237 264.15818787 C224.34050249 264.1465365 225.23157261 264.13488513 226.14964485 264.1228807 C233.3100542 264.19121513 238.65869403 266.03177975 243.83297729 271.07670593 C245.51320621 273.947097 245.46312315 275.39098227 245.33297729 278.63920593 C244.72002808 278.93053406 244.10707886 279.22186218 243.47555542 279.52201843 C227.39341139 287.17216324 211.40253327 294.91381793 195.68258667 303.28422546 C186.08837334 308.3814251 176.38149585 313.2271241 166.54182434 317.83259583 C159.64401805 321.06520025 152.82867689 324.38413643 146.11422729 327.98295593 C133.24524014 334.81315355 120.18619224 341.26905361 107.14724731 347.7664032 C103.81063922 349.42956962 100.47517241 351.09502152 97.13961792 352.76029968 C92.04410308 355.30397475 86.94795315 357.84637203 81.85128784 360.38774109 C77.03325683 362.79044042 72.21721751 365.19704967 67.40328979 367.60795593 C61.81588718 370.40583841 56.21969559 373.18591313 50.62210941 375.9633503 C45.28073943 378.61392951 39.9415582 381.26888888 34.60353756 383.92620659 C31.12532779 385.65740259 27.64598369 387.3862454 24.16427612 389.11039734 C20.7521586 390.80021653 17.34296579 392.49580248 13.93575859 394.19549942 C12.64536949 394.83792504 11.35392697 395.47823927 10.06141853 396.11639023 C8.27166518 397.00044822 6.48592618 397.89261938 4.70040894 398.78520203 C3.68499527 399.28957794 2.6695816 399.79395386 1.62339783 400.31361389 C-0.79232694 401.43138859 -0.79232694 401.43138859 -1.66702271 403.63920593 C-0.47357742 403.63644055 0.71986786 403.63367517 1.94947815 403.630826 C30.29060792 403.56582787 58.63173574 403.51637208 86.97292364 403.48600994 C90.46257056 403.4822579 93.95221733 403.47837493 97.44186401 403.47441101 C98.13657877 403.47362408 98.83129353 403.47283715 99.54706025 403.47202637 C110.79020298 403.4589787 122.0332996 403.43532838 133.27641499 403.40774754 C144.8161399 403.37967555 156.3558324 403.36325038 167.89559078 403.35694045 C174.37593546 403.35302865 180.85617563 403.34383128 187.33648682 403.32201576 C193.43655663 403.30164677 199.53647892 403.29537305 205.63657951 403.29988289 C207.874682 403.29905788 210.11278944 403.29309481 212.3508625 403.28158951 C215.40920906 403.26663921 218.4670004 403.27026187 221.52536011 403.27844238 C222.40864833 403.26970386 223.29193655 403.26096533 224.20199108 403.25196201 C231.16396186 403.302212 236.66553409 404.53930384 242.27047729 408.95170593 C244.59567641 411.98151084 244.84542129 413.91838382 245.33297729 417.63920593 C235.79517586 422.41024142 226.25501928 427.17653646 216.71288013 431.93889046 C208.81360511 435.88141278 200.91530942 439.82589385 193.01737499 443.771101 C187.74346777 446.40544683 182.46918681 449.03903872 177.19406128 451.67094421 C172.0329302 454.24601647 166.87282263 456.82312953 161.71337318 459.40156937 C159.7728842 460.37090369 157.83204887 461.33954504 155.89082909 462.30741501 C146.62488209 466.92781836 137.38389083 471.58069762 128.23776245 476.43461609 C116.38262783 482.72070617 104.37336802 488.70139441 92.37259078 494.70302773 C90.41553761 495.68191436 88.4587718 496.66137305 86.50209999 497.64102173 C79.65562583 501.06884466 72.80815476 504.49466613 65.95968628 507.91850281 C59.60179779 511.09714459 53.24617438 514.28028306 46.89154929 517.46544313 C41.39870323 520.2184051 35.90431851 522.96827874 30.40872651 525.71575499 C27.14159294 527.34919475 23.87508284 528.9838513 20.6101284 530.62164307 C16.98506124 532.43992099 13.35681561 534.25176584 9.72824097 536.06303406 C8.65757385 536.60117737 7.58690674 537.13932068 6.48379517 537.69377136 C5.49330673 538.18691833 4.5028183 538.68006531 3.48231506 539.18815613 C2.62760211 539.61578499 1.77288916 540.04341385 0.89227581 540.48400116 C-6.29054825 543.72615231 -11.95666178 544.78559902 -19.47659302 541.95903015 C-28.27428686 538.23930346 -36.68478227 533.62299714 -45.10232544 529.1257782 C-55.77415567 523.457713 -66.62479627 518.13615493 -77.44900513 512.76689148 C-84.15189497 509.43602587 -90.84635877 506.10033071 -97.44699287 502.57019711 C-112.68732665 494.43359174 -128.19842209 486.81848696 -143.65765619 479.109658 C-147.92073912 476.98316546 -152.18248642 474.85399972 -156.44433594 472.72503662 C-167.22569981 467.33985814 -178.0087806 461.95812221 -188.79202271 456.57670593 C-200.50039889 450.73355182 -212.20846066 444.88977209 -223.91459548 439.04212862 C-228.98050805 436.51166496 -234.04738921 433.98315442 -239.11501908 431.45613182 C-242.2491896 429.89276091 -245.38254144 428.3277549 -248.51566696 426.76229095 C-249.97266248 426.03473314 -251.43000514 425.30787003 -252.88771057 424.58173561 C-254.86878676 423.59477768 -256.84863584 422.60540112 -258.82818604 421.61538696 C-259.93823565 421.06147246 -261.04828526 420.50755796 -262.19197273 419.93685818 C-264.66702271 418.63920593 -264.66702271 418.63920593 -265.66702271 417.63920593 C-265.58103842 413.16802295 -265.15298905 411.17258363 -262.10452271 407.82670593 C-255.8700841 403.30431186 -248.3217825 403.34954693 -240.93533325 403.3986969 C-239.51012926 403.39613362 -239.51012926 403.39613362 -238.05613327 403.39351857 C-234.88859136 403.39023767 -231.72126368 403.4012043 -228.55374146 403.41215515 C-226.27672836 403.41271957 -223.99971491 403.41240211 -221.72270203 403.41127014 C-215.55185297 403.41069682 -209.38108182 403.42244795 -203.21025085 403.43641806 C-196.75736894 403.44892872 -190.30448519 403.45009618 -183.85159302 403.45246887 C-173.02426649 403.45797686 -162.19697187 403.47046549 -151.36965942 403.48832703 C-140.22024681 403.50670073 -129.07084195 403.52084993 -117.92141724 403.52934265 C-117.23352305 403.5298681 -116.54562886 403.53039355 -115.83688939 403.53093491 C-112.38573405 403.5335451 -108.93457866 403.53607249 -105.48342323 403.53855872 C-76.87793713 403.55927331 -48.27248103 403.59463241 -19.66702271 403.63920593 C-19.66702271 402.97920593 -19.66702271 402.31920593 -19.66702271 401.63920593 C-20.44561646 401.41877625 -21.22421021 401.19834656 -22.02639771 400.97123718 C-26.90306093 399.18696448 -31.34220045 396.76998835 -35.91702271 394.32670593 C-45.51654337 389.25470653 -55.1829112 384.33907761 -64.91799927 379.53251648 C-70.11381729 376.95606736 -75.2716214 374.32900922 -80.38907051 371.60095024 C-94.5626567 364.0607736 -108.94283245 356.92776715 -123.30374384 349.75368261 C-127.12400153 347.84484046 -130.94326403 345.9340088 -134.76269531 344.02351379 C-141.16807602 340.81992 -147.57428681 337.61799101 -153.98098755 334.41703796 C-161.34118043 330.73966419 -168.69992513 327.05940515 -176.05792916 323.37765396 C-182.42975749 320.1894563 -188.80237841 317.00284711 -195.17564094 313.8175174 C-198.9584798 311.92686921 -202.74106223 310.03571335 -206.52292252 308.14310837 C-226.94560425 297.89783258 -226.94560425 297.89783258 -247.57725525 288.08296204 C-251.53597509 286.23317042 -255.40005227 284.24132244 -259.22952271 282.13920593 C-259.86825317 281.79373718 -260.50698364 281.44826843 -261.16506958 281.09233093 C-262.66795597 280.2787383 -264.1678889 279.45969256 -265.66702271 278.63920593 C-265.93264771 272.97514343 -265.93264771 272.97514343 -263.54202271 269.95170593 C-257.3891041 265.00261923 -252.66424517 264.20400276 -245.02398682 264.27844238 C-244.05922546 264.27587911 -243.09446411 264.27331583 -242.10046756 264.27067488 C-238.87134267 264.26573788 -235.64268648 264.28222888 -232.41360474 264.29862976 C-230.09747834 264.29947605 -227.78135114 264.29900086 -225.46522522 264.29730225 C-219.17852049 264.29644094 -212.89198722 264.3140888 -206.60532236 264.33502412 C-200.0349861 264.35376826 -193.46464598 264.35553958 -186.89428711 264.35910034 C-175.86667913 264.36686779 -164.83913126 264.38611062 -153.81155396 264.41288757 C-142.4544608 264.44043593 -131.09738473 264.4616657 -119.74026489 264.47441101 C-118.68971346 264.47559327 -118.68971346 264.47559327 -117.61793877 264.47679941 C-114.10430594 264.48071459 -110.59067299 264.4845057 -107.07703996 264.48823512 C-77.94032663 264.51932167 -48.80367551 264.57237271 -19.66702271 264.63920593 C-22.54741276 261.65972953 -24.94254362 259.78464022 -28.71780396 258.04545593 C-30.21017578 257.34670349 -30.21017578 257.34670349 -31.73269653 256.63383484 C-32.80414917 256.1406073 -33.87560181 255.64737976 -34.97952271 255.13920593 C-43.06938537 251.33649124 -51.08410803 247.45599699 -58.97952271 243.26420593 C-72.36967495 236.17609284 -85.95133703 229.46986142 -99.51980591 222.73149109 C-107.83195952 218.59764028 -116.11744257 214.4325846 -124.31155396 210.06889343 C-138.63560482 202.45643868 -153.20567079 195.31482921 -167.7215271 188.07762146 C-171.7008393 186.09311238 -175.6790012 184.10630022 -179.65725708 182.11967468 C-184.83030911 179.53664079 -190.0036339 176.95415674 -195.17788792 174.37353134 C-196.49536554 173.71631057 -197.81271323 173.05882927 -199.12992001 172.40106583 C-202.130854 170.90266322 -205.13363342 169.40841179 -208.14019775 167.92131042 C-209.72560867 167.13536499 -209.72560867 167.13536499 -211.3430481 166.33354187 C-212.25607193 165.88267212 -213.16909576 165.43180237 -214.10978699 164.9672699 C-216.69708246 163.62359483 -219.17149489 162.14479174 -221.66702271 160.63920593 C-223.08516569 160.04315813 -224.51859303 159.48239194 -225.96389771 158.95561218 C-233.52330761 156.00945966 -240.68514335 152.23610248 -247.91702271 148.57670593 C-249.3621455 147.84911548 -250.80745685 147.12189941 -252.25296021 146.39506531 C-254.90549842 145.06070107 -257.55692973 143.72419185 -260.20706177 142.38505554 C-262.46871782 141.24385441 -264.73484619 140.11146252 -267.00588989 138.98905945 C-271.13742725 136.8933466 -271.13742725 136.8933466 -272.66702271 134.63920593 C-273.60526945 131.02025421 -274.09837645 128.68275018 -272.65139771 125.18217468 C-269.99858768 121.78260907 -266.82822706 120.20162851 -263.04202271 118.32670593 C-262.2199231 117.90703552 -261.39782349 117.48736511 -260.55081177 117.05497742 C-248.97450681 111.19512251 -237.25977834 105.60299844 -225.57098389 99.97183228 C-217.58239451 96.12096412 -209.61141725 92.23415656 -201.64096069 88.34593201 C-188.44736656 81.91042144 -175.24932988 75.48403026 -162.04202271 69.07670593 C-161.01650803 68.57916809 -161.01650803 68.57916809 -159.97027588 68.07157898 C-151.69790387 64.05974161 -143.41219438 60.07754347 -135.10452271 56.13920593 C-127.37185918 52.47178632 -119.70068812 48.69881718 -112.06008911 44.84379578 C-105.79225906 41.6887791 -99.51109768 38.56023216 -93.23391724 35.4238739 C-86.20185899 31.9095881 -86.20185899 31.9095881 -79.17874146 28.37748718 C-71.95071891 24.73511837 -64.67580879 21.21571672 -57.35452271 17.76420593 C-50.36631009 14.46819119 -43.48529118 11.02359821 -36.66702271 7.38920593 C-31.28201594 4.53065606 -25.90024675 1.6807053 -20.41702271 -0.98579407 C-19.46311646 -1.45243469 -18.50921021 -1.91907532 -17.52639771 -2.39985657 C-10.79997104 -4.66037701 -6.09811116 -2.98129652 0 0 Z " fill="#FDFCFB" transform="translate(638.6670227050781,341.3607940673828)"/>
<path d="M0 0 C4.9686226 0.62268823 8.96389238 2.79074341 13.36328125 5.03515625 C14.15526413 5.43327011 14.94724701 5.83138397 15.76322937 6.24156189 C18.28253463 7.5095849 20.79752917 8.78590533 23.3125 10.0625 C25.02381053 10.9256816 26.73539613 11.78831809 28.44726562 12.65039062 C32.63472401 14.76062402 36.81833708 16.87830698 41 19 C40.01 19.66 39.02 20.32 38 21 C38 20.34 38 19.68 38 19 C36.02 18.67 34.04 18.34 32 18 C32 17.34 32 16.68 32 16 C31.175 15.9175 30.35 15.835 29.5 15.75 C25.23246079 14.83552731 21.80763106 13.07776822 18 11 C18 10.34 18 9.68 18 9 C17.30132812 8.79503906 16.60265625 8.59007812 15.8828125 8.37890625 C14.97273438 8.10949219 14.06265625 7.84007812 13.125 7.5625 C12.22007812 7.29566406 11.31515625 7.02882813 10.3828125 6.75390625 C8 6 8 6 6 5 C6 4.34 6 3.68 6 3 C4.02 2.34 2.04 1.68 0 1 C0 0.67 0 0.34 0 0 Z " fill="#F86015" transform="translate(459,524)"/>
<path d="M0 0 C0.66 0.33 1.32 0.66 2 1 C-3.17703948 6.83444132 -8.40280876 12.56478535 -14 18 C-14.33 17.01 -14.66 16.02 -15 15 C-10.05 10.05 -5.1 5.1 0 0 Z " fill="#F86018" transform="translate(97,78)"/>
<path d="M0 0 C0 0.99 0 1.98 0 3 C-6.93 6.465 -6.93 6.465 -14 10 C-14.66 9.34 -15.32 8.68 -16 8 C-10.72 5.36 -5.44 2.72 0 0 Z " fill="#F96416" transform="translate(678,583)"/>
<path d="M0 0 C4.9430602 0.49430602 8.74976194 1.36890025 13 4 C13.33 4.99 13.66 5.98 14 7 C9.0276578 5.50829734 4.58154261 3.39542583 0 1 C0 0.67 0 0.34 0 0 Z " fill="#FB7937" transform="translate(658,351)"/>
<path d="M0 0 C-2.85021875 2.32240046 -5.46355091 3.93906527 -9 5 C-11.15625 4.546875 -11.15625 4.546875 -13 4 C-11.40233897 3.13372601 -9.79660056 2.28233535 -8.1875 1.4375 C-7.29417969 0.96183594 -6.40085937 0.48617187 -5.48046875 -0.00390625 C-3 -1 -3 -1 0 0 Z " fill="#FA6F23" transform="translate(797,804)"/>
<path d="M0 0 C-2.70269923 2.70269923 -5.4252738 3.70570258 -9 5 C-11.2265625 4.58203125 -11.2265625 4.58203125 -13 4 C-11.40233897 3.13372601 -9.79660056 2.28233535 -8.1875 1.4375 C-7.29417969 0.96183594 -6.40085937 0.48617187 -5.48046875 -0.00390625 C-3 -1 -3 -1 0 0 Z " fill="#F96C22" transform="translate(817,794)"/>
<path d="M0 0 C4.72463088 0.46319911 8.17057052 1.09891706 12 4 C12 4.66 12 5.32 12 6 C7.76570244 4.68938409 3.92592596 3.05643741 0 1 C0 0.67 0 0.34 0 0 Z " fill="#FB712F" transform="translate(646,345)"/>
<path d="M0 0 C-1.75 3.875 -1.75 3.875 -4 5 C-5.99960012 5.039992 -8.00047242 5.04346799 -10 5 C-3.63636364 0 -3.63636364 0 0 0 Z " fill="#F8681F" transform="translate(745,550)"/>
<path d="M0 0 C0.75 1.5625 0.75 1.5625 1 4 C-0.13084437 6.50286409 -1.52139516 8.67007722 -3 11 C-3.66 11 -4.32 11 -5 11 C-3.77472971 6.94718288 -2.30119506 3.55639236 0 0 Z " fill="#F46A26" transform="translate(51,135)"/>
<path d="M0 0 C0 3.60777515 -0.9904432 5.06295544 -3 8 C-3.99 8.495 -3.99 8.495 -5 9 C-4.5206753 4.68607774 -3.2542015 2.83430453 0 0 Z " fill="#FEEDE3" transform="translate(378,609)"/>
<path d="M0 0 C2.64 0 5.28 0 8 0 C7.01 1.485 7.01 1.485 6 3 C3.375 3.1875 3.375 3.1875 1 3 C0.67 2.01 0.34 1.02 0 0 Z " fill="#FEE8DB" transform="translate(221,1227)"/>
<path d="M0 0 C3.91211733 1.15585285 6.8745041 2.35534962 10 5 C7 6 7 6 5.17578125 5.22265625 C3.45052083 4.1484375 1.72526042 3.07421875 0 2 C0 1.34 0 0.68 0 0 Z " fill="#FB671A" transform="translate(596,732)"/>
<path d="M0 0 C3.73639216 1.24546405 4.18756513 2.63404953 6 6 C5.34 6.66 4.68 7.32 4 8 C0 2.25 0 2.25 0 0 Z " fill="#FA661D" transform="translate(1170,97)"/>
<path d="M0 0 C2.9375 0.8125 2.9375 0.8125 6 2 C6.33 2.99 6.66 3.98 7 5 C1.25 3.25 1.25 3.25 -1 1 C-0.67 0.67 -0.34 0.34 0 0 Z " fill="#FDDAC2" transform="translate(532,558)"/>
<path d="M0 0 C0.66 0.33 1.32 0.66 2 1 C2 1.66 2 2.32 2 3 C-0.5 4.625 -0.5 4.625 -3 6 C-3.66 5.34 -4.32 4.68 -5 4 C-3.35 2.68 -1.7 1.36 0 0 Z " fill="#F76920" transform="translate(117,62)"/>
</svg>
